<svg width="64" height="64" viewBox="0 0 64 64" fill="none" xmlns="http://www.w3.org/2000/svg">
<path d="M58.5067 34.96L55.7067 26.3733C55.7067 26.2933 55.68 26.2133 55.6534 26.1333L50.0267 8.85334C49.7334 8.00001 48.88 7.33334 47.8934 7.33334C46.9334 7.33334 46.08 8.00001 45.7867 8.88001L40.4534 25.3333H23.5734L18.2134 8.88001C17.92 8.00001 17.0667 7.33334 16.1067 7.33334C15.12 7.33334 14.2667 8.00001 13.9734 8.88001L8.34669 26.1867V26.2133L5.49335 34.96C5.06669 36.2933 5.52002 37.7333 6.66669 38.5333L31.2534 56.4267C31.7067 56.7467 32.2934 56.7467 32.7467 56.4L57.3334 38.5333C58.48 37.7333 58.9334 36.2933 58.5067 34.96ZM21.7334 27.8667L28.5867 48.96L12.1334 27.8667H21.7334ZM35.4134 48.9867L42 28.7467L42.2667 27.8667H51.8934L36.9867 46.96L35.4134 48.9867ZM47.92 10.5067L52.7467 25.3333H43.0934L47.92 10.5067ZM39.6267 27.8667L34.8534 42.56L32 51.3067L24.3734 27.8667H39.6267ZM16.08 10.5067L20.9067 25.3333H11.28L16.08 10.5067ZM8.13335 36.5067C7.89335 36.32 7.78669 36 7.89335 35.7333L10 29.2533L25.52 49.12L8.13335 36.5067ZM55.8667 36.5067L38.5067 49.12L38.56 49.04L54 29.2533L56.1067 35.7333C56.2134 36 56.1067 36.32 55.8667 36.5067Z" fill="#586B95"/>
</svg>
